<svg version="1.0" xmlns="http://www.w3.org/2000/svg" width="341.333" height="341.333" viewBox="0 0 256 256"><path d="M0 113c0 68.2.4 113 1 113 1.5 0 2.4-2.3 2.1-5.2-.1-1.4.1-2.8.6-3.1.5-.3.9 1.3.9 3.4.1 3.2-.3 4.3-2.2 5.6-2.3 1.5-2.4 1.9-2.4 15.4V256h256V0H0v113zM22.7 5.2c-.3.8-.6.5-.6-.6-.1-1.1.2-1.7.5-1.3.3.3.4 1.2.1 1.9zm228.1-.3c2.3 2 2.9 5.5 1.2 6.6-1.6 1-4.1-1.6-3.8-3.9.1-1.2-.1-2.7-.5-3.4-1.2-1.8.5-1.4 3.1.7zM137.4 17.6c1.8 1.8 2.1 4 .6 4.9-.6.4-.8 1.6-.5 2.7.4 1 .4 3 .1 4.4-.5 2-1.3 2.4-4.1 2.4-3.9 0-3.9.1-2.9-9.9.6-5.5.9-6.1 3-6.1 1.2 0 3 .7 3.8 1.6zm-27.4 2c0 1-.6 1.4-1.5 1.1-2.4-1-2.6.9-.4 3.6 1.1 1.5 2.6 2.4 3.4 2 1.1-.4 1.5.2 1.5 2 0 1.4.6 2.9 1.2 3.3 1.4.9-1.9 2.1-6 2.3-3 .1-4.9-3.8-3.3-6.7.7-1.4.8-2.3.1-2.7-1.1-.7-1.4-4.8-.3-5.8 1.3-1.4 5.3-.7 5.3.9zm45 1.1c0 1-.7 3.9-1.5 6.5-.7 2.6-1 5-.5 5.3 1.1.7 1.4.1 3.4-6.8 1.5-5.3 2.4-6.5 3.8-5.1.8.7-2.7 12.1-4.2 14-1.6 1.8-2.3 1.8-4.9-.4-2.1-1.7-2.1-1.8-.6-7.2.9-3 1.8-6.1 2-6.8.6-1.8 2.5-1.5 2.5.5zm-69.7 5c.4.3.2 1.2-.3 1.8-.7.8-.2 3 1.5 6.9 2.9 6.6 2.9 6.6 1.1 6.6-.7 0-2.5-2.7-3.9-6-2-4.4-3-5.8-4.2-5.4-.9.4-1.5 0-1.5-.9 0-.8 1.2-2 2.8-2.5 3.4-1.3 3.7-1.3 4.5-.5zm92.5 1.9c2.9 2 2.8 4.5-.2 7.5-1.3 1.4-2.6 3.8-2.8 5.4-.4 4.1-2.3 2.8-2.2-1.4.2-3.2 0-3.3-1.2-1.7-.7 1.1-1.5 2.4-1.7 3-.3.8-.8.8-1.6 0-.9-.9-.4-2.7 2.1-7.8 1.8-3.6 3.7-6.6 4.3-6.6.6 0 2.1.7 3.3 1.6zM71.4 41.3c4.1 3.7 5.6 5.6 4.8 6.1-.7.4-1.9.2-2.7-.4-1.9-1.5-3.4-.5-2.8 1.9.3 1 0 2.1-.5 2.5-.9.5-7.2-12.1-7.2-14.4 0-2.2 2.8-.7 8.4 4.3zm125.4-2.1c1.7 1.7 1.5 4.8-.3 4.8-.8 0-1.5-.7-1.5-1.5 0-2.5-1.7-1.7-4.9 2.2-2.9 3.6-3.3 6.6-.5 4.2.7-.6 1.2-1.5.9-1.9-.9-1.5 1.5-2.2 3.1-.9 1.3 1 1.1 1.6-1.2 4.1-3.3 3.3-4.5 3.5-6.9.8-1.7-1.9-1.7-2.1 0-4.7 4.6-7.2 8.6-9.8 11.3-7.1zM49.3 48.1c2-1.6 3.3.4 1.6 2.5-1.7 2.1.4 4.3 2.5 2.5 1.8-1.5 3.3.4 1.7 2.3-1.8 2.2 1.2 4.1 3.8 2.4 3.2-2 3.8 0 .8 3L57 63.4l-5.3-5.2c-4.1-4.1-5.4-6-5.4-8.3 0-1.8.3-2.5.8-1.8.6 1 1.1 1 2.2 0zM213.5 57c-.5.8-1.2.6-2.6-.6-2.5-2.3-5-.4-2.9 2.1.9 1.1 1 1.9.3 2.6-.7.7-1.4.5-2.2-.5-1-1.2-1.7-1.3-3.1-.3-1.8 1-1.8 1.3-.4 2.9.9.9 1.3 2.2.9 2.8-.9 1.4-5.7-2.8-5.3-4.6.2-.6 2.8-3.2 5.8-5.8l5.4-4.6 2.4 2.4c1.4 1.3 2.1 2.9 1.7 3.6zm-160 6.6c2.8 1.8 3.2 4.5 1.1 6.3-1.8 1.5-3.5-.5-4-4.8-.4-3.6-.3-3.6 2.9-1.5zm-6.2 6.7c1.9 1.3 2.5 2.3 1.9 2.9-.7.7-2.1.3-4.2-1.2-3.1-2.2-3.2-2.2-2.1-.2 1.5 2.9 1.4 3.2-1.1 3.2-2.2.1-2.2.1.5 1.8 2.8 1.7 3.3 2.7 1.9 3.6-1 .6-13.2-7-13.2-8.2 0-1.7 1.1-2 4.6-1.2 4 .9 4.1.8 1.3-2.9-1.2-1.6-1.8-3.4-1.5-4 .7-1 4.5 1 11.9 6.2zm176.7-.7c1.8 3.3.5 5.5-4.1 7-1.8.6-3.9 2.1-4.7 3.3-1.5 2.3-3.2 2.8-3.2 1 0-.6 1-2.4 2.1-4.1l2.2-3-3.1 1.6c-3.7 1.9-4.2 2-4.2.3.1-1.2 10.6-8.5 12.6-8.6.6-.1 1.7 1.1 2.4 2.5zM104 81.5v3.6l-8.7-.3c-7.5-.3-8.8-.6-9.1-2.1-.8-4.1.4-4.7 9.3-4.7h8.5v3.5zm-78-1.1c0 .3-.4.8-1 1.1-.5.3-1 .1-1-.4 0-.6.5-1.1 1-1.1.6 0 1 .2 1 .4zm43.1 12.5C72 95.8 72 96 72 107.4V119h-6.9l-.3-11.3c-.2-9.2-.6-11.2-1.8-11.2-1.3 0-1.5 4.9-1.8 37.2C61 170.5 61 171 63 171c1.9 0 2-.6 2-17.9 0-9.9-.4-18.1-.9-18.3-.5-.2-1.1-1.4-1.3-2.8-.3-2.3 0-2.5 4.5-2.8l4.7-.3v21.5c0 21.2 0 21.5-2.4 24.3-3.1 3.6-9.5 3.9-12.8.5-2.2-2.1-2.3-3.2-2.8-21-.3-10.3-.3-27.9 0-39l.5-20.4 2.8-2.4c3.9-3.3 8.1-3.1 11.8.5zm30.8-1.4c1.6.8 3.1 2.2 3.5 3.1.3.9.6 18.7.6 39.7 0 37.4 0 38.1-2.1 40.3-2.7 2.9-6.5 3.8-9.8 2.4-5.5-2.2-5.6-2.6-5.9-40.8-.3-38.5.1-42.2 4.6-44.6 3.5-1.9 5.6-2 9.1-.1zm34.2 1.5c2.9 2.9 3 3 2.7 12.7l-.3 9.8h-6l-.5-9.5c-.4-7.6-.8-9.5-2-9.5s-1.6 1.8-1.8 9c-.4 9.3 1.2 19.5 2.9 19.5.6 0 .8.4.5.8-.3.5.6 3.3 2 6.3 4.1 8.6 5.4 15.5 5.4 27.2 0 12.2-1.2 15.7-5.8 17.6-3.7 1.6-7.7.5-10.2-2.6-1.7-2.2-2-4.1-2-13.9V149h6.5l-.3 6.7c-.4 10.3.5 15.3 2.9 15.3 1.8 0 1.9-.8 1.9-13.3-.1-14.2-.4-15.7-7.1-30.7-3.2-7.2-3.3-8-3.4-19.8 0-12.3 0-12.4 2.8-14.8 3.9-3.3 8.1-3.1 11.8.6zm23.9 17v19h5V91h3c3 0 3 0 3 5.7.1 7.8.1 75.2 0 78 0 1.9-.6 2.3-3 2.3h-3v-42h-5v42.1l-3.1-.3-3.1-.3.1-39c0-21.5 0-40.7.1-42.8 0-3.4.2-3.7 3-3.7h3v19zm44.8-16.1c.4 2.8-1.4 4.2-4.5 3.4l-2.3-.5v16.5c0 13.7.3 16.6 1.5 17.1.8.3 1.5 1 1.5 1.5 0 .6-.7.8-1.5.5-1.3-.5-1.5 2.3-1.5 22.1v22.6l-3.2-.3-3.3-.3-.3-39.8L189 97h-3c-2.7 0-3-.3-3-3v-3.1l9.8.3c9.4.3 9.7.4 10 2.7zM24.7 123.6c-.5 2.6 1 3.3 1.9.9.8-2.1 3.6-1.9 3.2.2-.2.9-1.4 2-2.8 2.4l-2.5.6 2.8.8c1.5.4 2.7 1.3 2.7 2.1 0 1.8-1.9 1.8-4-.1-1.5-1.4-1.6-1.2-1.2 1.5.3 2.4.1 3-1.3 3-1.4 0-1.6-.6-1.1-3.2.6-3 .5-3-1.2-1.5-2.3 2.1-4.2 2.2-4.2.3 0-.8 1.2-1.7 2.8-2.1l2.7-.8-2.5-.6c-1.4-.4-2.6-1.5-2.8-2.4-.4-2.2 1.6-2.2 4.1 0 1.9 1.7 1.9 1.7 1.3-.4-.8-2.6.1-4.6 1.6-3.7.5.3.8 1.7.5 3zm209 0c-.5 2.8 0 3 2.5.7 2-1.8 3.4-1.2 2.5 1.2-.4.8-1.7 1.5-2.9 1.6-2.1.1-2.1.2.5 1.2 1.5.6 2.7 1.7 2.7 2.4 0 1.7-2 1.6-4-.2-1.5-1.4-1.6-1.2-1.2 1.5.3 2.4.1 3-1.3 3-1.4 0-1.6-.6-1.1-3.2.6-3 .5-3-1.2-1.5-2.2 2-4.2 2.2-4.2.4 0-.7 1.2-1.8 2.8-2.4 2.4-1 2.5-1.1.5-1.2-2.7-.1-3.9-1.9-2.4-3.4.7-.7 1.7-.5 3.2.9 2.2 1.9 2.2 1.9 1.5-.3-.8-2.6.1-4.6 1.6-3.7.5.3.8 1.7.5 3zm-31.6 36.8c-.9 1.1-.9 2-.2 3.4.8 1.5.6 2.3-.8 3.6-2.4 2.2-3.8 2-1.7-.3.9-1 1.4-2.5 1-3.4-.6-1.6 1.4-6.3 2.3-5.3.3.3 0 1.2-.6 2zM45.8 178.6c-.2.8-2.9 3-6.1 4.7-6.2 3.5-8.9 3.1-9.5-1.2-.4-2.5 1.3-2.8 2.6-.4.9 1.5 1.5 1.3 6.3-1.5 6.2-3.6 7.2-3.8 6.7-1.6zm170.8 2.5c5.3 3 5.6 3.1 6.9 1.3 1.9-2.7 3-1 1.5 2.6-.7 1.6-1.4 3-1.7 3-.4 0-7.8-4.1-12.1-6.7-1.2-.8-2-1.8-1.7-2.3.9-1.4.9-1.4 7.1 2.1zM13 189c0 .5-.4 1-1 1-.5 0-1-.5-1-1 0-.6.5-1 1-1 .6 0 1 .4 1 1zm43.8 3.2c2.2 2.2 1.3 4.5-3 8-6.3 5-6.7 5.2-8.9 3.2-2.8-2.5-2.4-3.7 2.6-8.3 4.6-4.2 7.2-5 9.3-2.9zm147.7 4.9c4.2 3.9 4.7 4.1 6.3 2.6 1.5-1.3 1.9-1.4 3.6-.1 1.3.9 1.5 1.4.6 1.4-.8 0-2.3.9-3.5 2l-2.2 2-5.6-4.7c-5.2-4.5-7-7.3-4.7-7.3.6 0 3.1 1.9 5.5 4.1zM168 195c0 .5-.4 1-1 1-.5 0-1-.5-1-1 0-.6.5-1 1-1 .6 0 1 .4 1 1zm-3 7c0 .5-.5 1-1.1 1-.5 0-.7-.5-.4-1 .3-.6.8-1 1.1-1 .2 0 .4.4.4 1zm27.9 7.2c3.3 4.1 4.7 6.6 4.1 7.2-.6.6-1.3.6-1.8 0-6-7-9.2-11.5-8.7-12.4.9-1.5 1-1.4 6.4 5.2zM71.5 206c1 1.1 1.5 2.6 1.1 3.5-.7 1.9-2.6 1.1-2.6-1.1 0-.8-.5-1.4-1-1.4-1.6 0-2.4 3-1.1 4.3 1.8 1.8 1.3 4.2-1.3 6.6-2 1.9-2.8 2.1-4.6 1.1-2.6-1.4-2.5-6.3.3-6.8 1.5-.3 1.7.1 1.1 2.5-.6 2.6-.5 2.7 1.1 1.2 1.3-1.3 1.5-2.1.6-3.7-1.5-2.9-1.4-3.9.9-6.2 2.5-2.5 3.2-2.5 5.5 0zm-55.8 7.6c-.3.3-1.2.4-1.9.1-.8-.3-.5-.6.6-.6 1.1-.1 1.7.2 1.3.5zm161.9 1.9c.9 1.4 1.4 3.1 1.1 3.9-.3.8.5 2.4 1.9 3.7 1.7 1.6 2.1 2.6 1.3 3.3-.7.8-1.8.2-3.6-1.9-2.6-3-2.8-2.2-.8 2.7.5 1.2.3 1.8-.7 1.8-.7 0-2.9-3-4.7-6.7-3.1-6.3-3.2-6.8-1.5-8 2.7-2 5.2-1.6 7 1.2zm-90.2-.4c3.2 1.5 3.9 3.5 2.3 6.7-.9 2-2 2.7-4.1 2.7-2.1.1-3.1.7-3.7 2.3-.5 1.2-1.6 2.2-2.5 2.2-.8 0-1.4-.4-1.2-.8 1.7-4.2 6.3-14.2 6.5-14.2.1 0 1.3.5 2.7 1.1zm69.4 6.1c1.8 1.8 1.4 3.1-.8 2.5-1.1-.3-2.2-.2-2.4.2-.8 1.2 2 9.5 3.2 9.9 1.7.5 1.5-2.3-.3-3.8-1.7-1.4-1.1-3 1.1-3 1.8 0 3.7 4.6 2.9 7.1-.8 2.5-4.4 3.5-6.2 1.7-.7-.8-2-3.9-2.8-6.8-1.3-4.9-1.3-5.6.2-7.2 1.9-2.1 3.4-2.3 5.1-.6zm-48 .8c.6 0 1.2.7 1.2 1.6 0 1.2-.6 1.5-2.4 1-1.8-.4-2.5-.1-2.9 1.3-.3 1.3.1 2.1 1.4 2.4 2.6.7 2.4 2.5-.3 2.9-3 .4-3.5 3.4-.8 4.1 3.5.9 2.4 3-1.2 2.3-1.7-.3-3.4-.8-3.6-1.1-.3-.3 0-3.1.7-6.2 2-9.5 2.1-9.5 4.4-8.9 1.2.3 2.8.6 3.5.6zm20.4 4.5c.8 1.8.8 3.1 0 4.9-.7 1.6-.8 3.6-.2 5.5.7 2.5.6 3.1-.6 3.1-.8 0-1.7-1.3-2-3-.4-1.7-1-3-1.5-3s-.9 1.3-.9 3c0 2.1-.5 3-1.6 3-1.4 0-1.6-.8-1-5.3.3-2.8.6-6.4.6-8 0-2.3.4-2.7 3-2.7 2.3 0 3.3.6 4.2 2.5zM43 234.1c0 .5-.7.9-1.5.9-1.5 0-2-1.2-.9-2.3.8-.8 2.4.1 2.4 1.4z"/><path d="M134 21.1c0 1.1.5 1.7 1 1.4.6-.3 1-1.3 1-2.1s-.4-1.4-1-1.4c-.5 0-1 .9-1 2.1zM133 27.4c0 1.4.5 2.6 1 2.6.6 0 1-.7 1-1.5s0-1.8.1-2.2c0-.4-.4-.9-1-1.1-.6-.2-1.1.8-1.1 2.2zM107 29.3c0 1.9 1.6 3.1 2.4 1.8.3-.5-.1-1.4-.9-2.1-1.2-1-1.5-1-1.5.3zM174.6 30.5c-1.1 3-.6 4 1.1 2.2 1.2-1.2 1.4-2 .6-2.8-.7-.7-1.2-.6-1.7.6zM68 42.8c.6 1.3 1.4 2.1 1.8 1.8.3-.4-.2-1.4-1.2-2.4-1.8-1.6-1.8-1.6-.6.6zM218.5 72.1c-.4.6-.4 1.3-.1 1.6.8.8 3.6-.5 3.6-1.7 0-1.3-2.7-1.3-3.5.1zM94.2 96.9c-.9.6-1.2 9.2-1 37.2.3 35.6.3 36.4 2.3 36.4 2 0 2-.8 2.3-36.1.2-37.1 0-39.7-3.6-37.5zM49 197.5c-1.8 1.9-3.1 3.7-2.7 4.1.7.7 8.7-5.5 8.7-6.8 0-1.8-2.8-.6-6 2.7zM173.1 218.1c.7 1.4 1.4 1.8 2.1 1.1 1.3-1.3.2-3.2-1.8-3.2-1.2 0-1.3.4-.3 2.1zM85 220c-.9 1.6-.8 2 .5 2 .8 0 1.5-.2 1.5-.4s.3-1.1.6-2c.9-2.3-1.3-2-2.6.4zM124.4 229c0 2.4 2 2.1 2.4-.3.2-.9-.3-1.7-1-1.7-.8 0-1.4.9-1.4 2z"/></svg>