<?xml version="1.0" encoding="UTF-8"?>
<!DOCTYPE svg PUBLIC "-//W3C//DTD SVG 1.1//EN" "http://www.w3.org/Graphics/SVG/1.1/DTD/svg11.dtd">
<!-- Creator: CorelDRAW 2020 (64-Bit) -->
<?xml-stylesheet href="logo-dark.css" type="text/css"?>
<svg xmlns="http://www.w3.org/2000/svg" xml:space="preserve" width="209.973mm" height="297.011mm" version="1.1" style="shape-rendering:geometricPrecision; text-rendering:geometricPrecision; image-rendering:optimizeQuality; fill-rule:evenodd; clip-rule:evenodd"
viewBox="0 0 20997.33 29696.23"
 xmlns:xlink="http://www.w3.org/1999/xlink"
 xmlns:xodm="http://www.corel.com/coreldraw/odm/2003">
 <g id="Слой_x0020_1">
  <metadata id="CorelCorpID_0Corel-Layer"/>
  <path class="fil0" d="M4985.11 15427.13l0 -489.53 754.41 0.01 0 3263.36c0,489.63 -295.76,795.5 -734.31,795.5 -448.33,0 -733.78,-305.87 -733.78,-795.5l-0.01 -5710.68c0,-488.89 295.02,-794.87 733.78,-794.87 448.86,0 734.31,305.98 734.31,794.87l0 1601.4 -510.23 0.01 0 -1223.8c0,-570.82 -30.24,-682.85 -224.07,-682.85 -193.95,0 -224.28,112.04 -224.28,682.83l-0.01 4955.64c0,570.8 30.35,683.43 224.28,683.43 193.84,0 224.07,-112.65 224.07,-683.43l0 -2396.38 -244.17 0zm-3927.88 165.93c-55.29,-34.53 -34.66,-20.43 -130.98,-137.4l-130.98 -144.26 -89.6 -48.41 0 96.85 62.33 192.07c41.37,130.98 48.12,110.24 48.12,178.79 0,48.44 -48.14,144.79 -151.11,144.79 -103.5,0 -151.4,-96.35 -151.4,-144.79 0,-68.52 0,-41.16 47.91,-178.79l61.8 -192.07 0 -96.85 -89.08 48.41 -137.51 144.26c-89.82,116.99 -61.8,102.89 -123.62,130.76 -41.16,27.38 -151.59,34.55 -206.66,-55.05 -47.8,-89.08 14,-178.79 47.88,-206.61 61.82,-34 41.19,-20.64 186.06,-47.88l192.7 -41.27 82.43 -48.44 -82.43 -47.8 -192.7 -48.41c-144.87,-20.77 -124.23,-6.67 -178.89,-41.29 -41.05,-27.17 -102.86,-116.88 -55.05,-206.58 55.05,-89.08 165.5,-81.83 206.66,-61.16 54.65,33.89 33.81,20.53 130.79,136.88l130.34 144.76 89.08 55.29 0 -103.1 -61.8 -192.68c-47.91,-138.15 -47.91,-110.24 -47.91,-178.79 0,-48.33 47.91,-144.79 151.4,-144.79 102.99,0 151.11,96.46 151.11,144.79 0,68.52 0,40.63 -48.14,178.79l-62.3 192.68 0 103.1 89.6 -55.29 138.25 -144.76c89.08,-102.99 61.8,-102.99 123.7,-130.26 41.08,-27.25 151.43,-34.53 205.95,54.55 48.44,89.71 -13.36,179.42 -47.88,206.58 -61.9,34.66 -41.19,20.53 -185.98,48.41l-192.68 41.29 -89.08 47.8 89.08 48.41 192.7 48.57c138.12,27.25 124.02,6.61 179.31,40.63 41.16,27.78 102.97,117.52 54.52,206.58 -54.52,89.6 -164.87,82.43 -205.95,61.69l0.01 0zm19643.04 0c-54.34,-34.53 -33.92,-20.43 -130.79,-137.4l-130.34 -144.26 -89.08 -48.41 0 96.85 61.9 192.07c41.16,130.98 47.91,110.24 47.91,178.79 0,48.44 -47.88,144.79 -151.4,144.79 -103.71,0 -151.22,-96.35 -151.22,-144.79 0,-68.52 0,-41.16 47.48,-178.79l62.35 -192.07 0 -96.85 -89.71 48.41 -137.51 144.26c-89.71,116.99 -61.72,102.89 -123.73,130.76 -40.95,27.38 -151.4,34.55 -205.95,-55.05 -48.33,-89.08 13.36,-178.79 47.88,-206.61 62.03,-34 41.19,-20.64 185.66,-47.88l192.46 -41.27 82.99 -48.44 -82.99 -47.8 -192.46 -48.41c-144.47,-20.77 -123.62,-6.67 -179,-41.29 -41.19,-27.17 -102.89,-116.88 -54.55,-206.58 54.55,-89.08 165,-81.83 205.95,-61.16 55.37,33.89 34.03,20.53 131.08,136.88l130.16 144.76 89.68 55.29 0 -103.1 -62.33 -192.68c-47.48,-138.15 -47.48,-110.24 -47.48,-178.79 0,-48.33 47.48,-144.79 151.22,-144.79 103.5,0 151.4,96.46 151.4,144.79 0,68.52 0,40.63 -47.88,178.79l-61.93 192.68 0 103.1 89.08 -55.29 137.62 -144.76c89.6,-102.99 61.8,-102.99 123.51,-130.26 41.16,-27.25 151.4,-34.53 206.69,54.55 47.88,89.71 -14.13,179.42 -47.8,206.58 -62.35,34.66 -41.79,20.53 -186.06,48.41l-192.7 41.29 -89.6 47.8 89.6 48.41 192.7 48.57c137.51,27.25 123.7,6.61 178.57,40.63 41.16,27.78 103.18,117.52 55.29,206.58 -55.29,89.6 -165.53,82.43 -206.69,61.69l0.02 0zm-13707.83 -4356.29l0 -521.64 1468.09 0 0 521.64 -1468.09 0zm1468.19 1253.51l0 5710.67c0,489.63 -295.66,795.5 -733.68,795.5 -448.96,0 -734.53,-305.87 -734.53,-795.5l0.01 -5710.67c0,-488.89 295.66,-794.87 734.53,-794.87 448.22,0 733.68,305.98 733.68,794.87l-0.01 0zm-957.85 479.9l0 4751.5c0,570.8 -20.85,785.26 224.18,785.26 244.79,0 224.07,-214.47 224.07,-785.26l0 -4751.47c0,-571.32 20.72,-785.18 -224.07,-785.18 -245.03,0 -224.18,213.86 -224.18,785.18l0 -0.03zm3689.27 815.61l-510.27 0 0 -917.91c0,-570.8 -30.32,-682.8 -224.15,-682.8 -193.23,0 -224.28,112.01 -224.28,682.8l0 305.98c0,1917.09 948.38,1967.93 948.38,3813.54l0 1213.6c-9.68,489.63 -305.98,795.5 -734.53,795.5 -427.73,0 -734.23,-305.87 -734.23,-795.5l0 -1600.79 510.27 0 0 1223.33c0,570.8 30.22,683.43 223.97,683.43 194.16,0 224.15,-112.65 224.15,-683.43l0 -795.53c0,-1886.24 -947.43,-1968.04 -947.43,-3782.66l0 -755.06c0,-488.89 295.55,-794.87 733.71,-794.87 448.94,0 734.39,305.98 734.39,794.87l0 1295.5 0.02 0.01zm1762.52 1641.34l0 3487.62 -510.06 0 0 -7138.13 510.06 0 0 3161 448.33 0 0 -3161 510.26 0 0 7138.13 -510.26 0 0 -3487.62 -448.33 0zm3169.44 -3161.02l0 6648.67 -509.64 -0.01 0 -6648.66 -550.79 0 0 -489.5 1611.11 0 0 489.5 -550.68 0z"/>
 </g>
</svg>
