<svg width="790" height="314" xmlns="http://www.w3.org/2000/svg"><path d="M186.587 178.887v-18.504h28.517v123.355c0 18.508-11.18 30.07-27.757 30.07-16.947 0-27.737-11.562-27.737-30.07V67.874c0-18.48 11.152-30.046 27.737-30.046 16.967 0 27.757 11.566 27.757 30.046v60.533h-19.287v-46.26c0-21.577-1.143-25.812-8.47-25.812-7.331 0-8.478 4.235-8.478 25.811V269.47c0 21.576 1.147 25.834 8.478 25.834 7.327 0 8.47-4.258 8.47-25.834v-90.583h-9.23zm-148.474 6.272c-2.09-1.305-1.31-.772-4.951-5.194l-4.951-5.453-3.387-1.83v3.661l2.356 7.26c1.564 4.951 1.819 4.167 1.819 6.758 0 1.831-1.82 5.473-5.712 5.473-3.912 0-5.723-3.642-5.723-5.473 0-2.59 0-1.556 1.811-6.758l2.336-7.26v-3.661l-3.367 1.83-5.198 5.453c-3.395 4.422-2.336 3.889-4.673 4.943-1.556 1.035-5.73 1.306-7.812-2.081-1.807-3.367.529-6.758 1.81-7.81 2.337-1.285 1.557-.78 7.033-1.81l7.284-1.56 3.116-1.831-3.116-1.807-7.284-1.83c-5.476-.785-4.696-.252-6.762-1.561-1.552-1.027-3.888-4.418-2.081-7.809 2.081-3.367 6.256-3.093 7.812-2.312 2.066 1.281 1.278.776 4.944 5.174l4.927 5.472 3.367 2.09v-3.897l-2.336-7.283c-1.811-5.222-1.811-4.167-1.811-6.758 0-1.827 1.811-5.473 5.723-5.473 3.893 0 5.712 3.646 5.712 5.473 0 2.59 0 1.536-1.82 6.758l-2.355 7.283v3.897l3.387-2.09 5.226-5.472c3.367-3.893 2.336-3.893 4.676-4.924 1.553-1.03 5.724-1.305 7.785 2.062 1.831 3.391-.505 6.782-1.81 7.809-2.34 1.31-1.557.776-7.03 1.83l-7.283 1.561-3.367 1.807 3.367 1.83 7.284 1.836c5.221 1.03 4.688.25 6.778 1.536 1.556 1.05 3.892 4.442 2.061 7.809-2.061 3.387-6.232 3.116-7.785 2.332zm742.508 0c-2.054-1.305-1.282-.772-4.944-5.194l-4.927-5.453-3.367-1.83v3.661l2.34 7.26c1.556 4.951 1.811 4.167 1.811 6.758 0 1.831-1.81 5.473-5.723 5.473-3.92 0-5.716-3.642-5.716-5.473 0-2.59 0-1.556 1.795-6.758l2.357-7.26v-3.661l-3.391 1.83-5.198 5.453c-3.391 4.422-2.333 3.889-4.677 4.943-1.548 1.035-5.723 1.306-7.785-2.081-1.827-3.367.505-6.758 1.81-7.81 2.345-1.285 1.557-.78 7.018-1.81l7.275-1.56 3.137-1.831-3.137-1.807-7.275-1.83c-5.461-.785-4.673-.252-6.766-1.561-1.557-1.027-3.889-4.418-2.062-7.809 2.062-3.367 6.237-3.093 7.785-2.312 2.093 1.281 1.286.776 4.955 5.174l4.92 5.472 3.39 2.09v-3.897l-2.356-7.283c-1.795-5.222-1.795-4.167-1.795-6.758 0-1.827 1.795-5.473 5.716-5.473 3.912 0 5.723 3.646 5.723 5.473 0 2.59 0 1.536-1.81 6.758l-2.341 7.283v3.897l3.367-2.09 5.202-5.472c3.387-3.893 2.336-3.893 4.669-4.924 1.556-1.03 5.723-1.305 7.813 2.062 1.81 3.391-.534 6.782-1.807 7.809-2.357 1.31-1.58.776-7.033 1.83l-7.284 1.561-3.387 1.807 3.387 1.83 7.284 1.836c5.198 1.03 4.676.25 6.75 1.536 1.556 1.05 3.9 4.442 2.09 7.809-2.09 3.387-6.257 3.116-7.813 2.332zM262.464 20.491V.773h55.494v19.718h-55.494zm55.498 47.383v215.864c0 18.508-11.176 30.07-27.733 30.07-16.971 0-27.765-11.562-27.765-30.07V67.874c0-18.48 11.176-30.046 27.765-30.046 16.943 0 27.733 11.566 27.733 30.046zm-36.207 18.14v179.607c0 21.576-.788 29.683 8.474 29.683 9.253 0 8.47-8.107 8.47-29.683V86.015c0-21.596.783-29.68-8.47-29.68-9.262 0-8.474 8.084-8.474 29.68zm139.455 30.83h-19.288V82.147c0-21.576-1.146-25.81-8.473-25.81-7.304 0-8.478 4.234-8.478 25.81v11.566c0 72.466 35.849 74.388 35.849 144.152v45.874c-.366 18.508-11.566 30.07-27.765 30.07-16.168 0-27.754-11.562-27.754-30.07v-60.51h19.288v46.242c0 21.576 1.142 25.834 8.466 25.834 7.339 0 8.473-4.258 8.473-25.834V239.4c0-71.3-35.813-74.392-35.813-142.985V67.874c0-18.48 11.172-30.046 27.734-30.046 16.97 0 27.76 11.566 27.76 30.046v48.97zm66.623 62.043v131.832h-19.28V40.897h19.28v119.486h16.947V40.897h19.288v269.822H504.78V178.887h-16.947zM607.638 59.4v251.32h-19.264V59.4h-20.82V40.897h60.9V59.4h-20.816z" fill="#FFF" fill-rule="evenodd"/></svg>